<?xml version="1.0" standalone="no"?>
<!DOCTYPE svg PUBLIC "-//W3C//DTD SVG 20010904//EN"
 "http://www.w3.org/TR/2001/REC-SVG-20010904/DTD/svg10.dtd">
<svg version="1.0" xmlns="http://www.w3.org/2000/svg"
 width="750.000000pt" height="750.000000pt" viewBox="0 0 750.000000 750.000000"
 preserveAspectRatio="xMidYMid meet">
<metadata>
Created by potrace 1.14, written by Peter Selinger 2001-2017
</metadata>
<g transform="translate(0.000000,750.000000) scale(0.100000,-0.100000)"
fill="#000000" stroke="none">
<path d="M3571 6640 c-419 -33 -796 -139 -1164 -327 -873 -447 -1471 -1279
-1611 -2243 -67 -466 -25 -934 124 -1380 83 -249 196 -479 347 -708 309 -469
782 -865 1301 -1087 542 -232 1097 -303 1672 -215 802 123 1532 574 1999 1235
88 124 181 275 233 380 362 720 422 1546 168 2305 -83 249 -196 479 -347 708
-106 161 -217 296 -373 453 -487 490 -1109 788 -1815 869 -131 15 -402 20
-534 10z m525 -1694 c29 -33 144 -218 144 -231 0 -3 10 -16 23 -29 l22 -24
440 -4 c418 -4 442 -6 487 -25 25 -12 59 -35 74 -53 59 -65 57 -37 57 -990 0
-624 -3 -887 -11 -916 -17 -60 -70 -116 -133 -139 -53 -20 -80 -20 -1459 -20
l-1405 0 -41 22 c-45 24 -96 82 -115 129 -14 38 -24 1233 -12 1584 8 242 10
257 32 293 31 51 95 92 163 106 65 14 73 21 81 75 10 65 33 77 155 85 58 3
150 6 204 5 89 -1 101 -4 124 -25 14 -13 27 -39 31 -62 3 -21 12 -44 19 -51
25 -26 143 -30 241 -10 23 4 39 28 150 212 66 112 61 111 442 108 l254 -2 33
-38z"/>
<path d="M4643 4349 c-68 -20 -82 -82 -29 -135 l34 -34 166 0 c129 0 174 3
196 15 55 28 66 85 26 132 l-24 28 -169 2 c-92 1 -182 -2 -200 -8z"/>
<path d="M3575 4245 c-155 -43 -329 -185 -401 -326 -53 -106 -66 -157 -71
-290 -4 -98 -2 -141 11 -195 34 -134 117 -266 225 -354 74 -61 101 -77 195
-113 75 -28 90 -30 216 -31 149 -1 198 10 310 68 157 82 290 248 335 421 36
140 13 352 -52 478 -81 156 -246 295 -402 340 -58 17 -308 18 -366 2z m350
-200 c154 -62 249 -159 294 -302 79 -249 -24 -490 -258 -606 -84 -42 -85 -42
-200 -42 -104 0 -123 3 -186 28 -149 61 -239 156 -290 308 -31 90 -30 225 3
319 56 162 208 290 382 324 64 12 186 -2 255 -29z"/>
</g>
</svg>
